Coordinates
version=1
nRows=64
nColumns=11
inDegrees=yes

Units are S.I. units (second, meters, Newtons, ...)
If the header above contains a line with 'inDegrees', this indicates whether rotational values are in degrees (yes) or radians (no).

endheader
time	pelvis_tilt	pelvis_tx	pelvis_ty	hip_flexion_l	hip_flexion_r	knee_angle_l	knee_angle_r	ankle_angle_l	ankle_angle_r	lumbar
     25.60000000	     -5.81944257	     -0.01756949	      0.72649624	     75.74767947	     75.74767947	    -74.68467038	    -74.68467038	      5.77141336	      5.77141336	    -44.68259315
     25.61000000	     -6.91142632	     -0.01455640	      0.72644378	     76.55604262	     76.55604262	    -74.53026718	    -74.53026718	      6.01464344	      6.01464344	    -44.53017923
     25.62000000	     -8.04509241	     -0.01144027	      0.72646047	     77.37752830	     77.37752830	    -74.35060442	    -74.35060442	      6.25760967	      6.25760967	    -44.32774061
     25.63000000	     -9.20916174	     -0.00823730	      0.72656192	     78.20869074	     78.20869074	    -74.14931742	    -74.14931742	      6.48776136	      6.48776136	    -44.08936652
     25.64000000	    -10.40667212	     -0.00494565	      0.72676459	     79.04228918	     79.04228918	    -73.91836119	    -73.91836119	      6.70490915	      6.70490915	    -43.80733994
     25.65000000	    -11.61489053	     -0.00158899	      0.72709642	     79.85817687	     79.85817687	    -73.65715032	    -73.65715032	      6.90353552	      6.90353552	    -43.51315434
     25.66000000	    -12.83581446	      0.00186001	      0.72755118	     80.65990232	     80.65990232	    -73.37067379	    -73.37067379	      7.08194310	      7.08194310	    -43.19472828
     25.67000000	    -14.05837126	      0.00538334	      0.72811784	     81.43813441	     81.43813441	    -73.06110719	    -73.06110719	      7.23933352	      7.23933352	    -42.85987583
     25.68000000	    -15.26797274	      0.00898217	      0.72880461	     82.18082453	     82.18082453	    -72.73426240	    -72.73426240	      7.38564021	      7.38564021	    -42.52246745
     25.69000000	    -16.46398040	      0.01264234	      0.72959304	     82.89162039	     82.89162039	    -72.39376196	    -72.39376196	      7.50656729	      7.50656729	    -42.17785715
     25.70000000	    -17.63711529	      0.01636626	      0.73047718	     83.56298394	     83.56298394	    -72.04288605	    -72.04288605	      7.62666633	      7.62666633	    -41.83080343
     25.71000000	    -18.77878050	      0.02014544	      0.73145443	     84.18890219	     84.18890219	    -71.68643047	    -71.68643047	      7.74504322	      7.74504322	    -41.48602803
     25.72000000	    -19.88600083	      0.02396459	      0.73250175	     84.77293137	     84.77293137	    -71.32508301	    -71.32508301	      7.87095712	      7.87095712	    -41.13431378
     25.73000000	    -20.94115164	      0.02784152	      0.73369756	     85.28805023	     85.28805023	    -70.96356473	    -70.96356473	      8.00841970	      8.00841970	    -40.81231334
     25.74000000	    -21.94553381	      0.03173842	      0.73498258	     85.74780074	     85.74780074	    -70.60356225	    -70.60356225	      8.15041073	      8.15041073	    -40.49538372
     25.75000000	    -22.88930192	      0.03566824	      0.73638672	     86.13977374	     86.13977374	    -70.24429716	    -70.24429716	      8.30463381	      8.30463381	    -40.19938068
     25.76000000	    -23.58044926	      0.03972059	      0.73846979	     86.21728672	     86.21728672	    -69.82746039	    -69.82746039	      8.39693099	      8.39693099	    -40.18686924
     25.77000000	    -24.56377493	      0.04354161	      0.73962777	     86.69025048	     86.69025048	    -69.52019876	    -69.52019876	      8.64213650	      8.64213650	    -39.70310993
     25.78000000	    -25.28575797	      0.04750507	      0.74146708	     86.84256574	     86.84256574	    -69.16172009	    -69.16172009	      8.83882980	      8.83882980	    -39.50421975
     25.79000000	    -25.89193638	      0.05150976	      0.74356494	     86.86624445	     86.86624445	    -68.79313680	    -68.79313680	      8.97801155	      8.97801155	    -39.39074541
     25.80000000	    -26.42190614	      0.05548878	      0.74581829	     86.80873673	     86.80873673	    -68.41646968	    -68.41646968	      9.09071269	      9.09071269	    -39.31694312
     25.81000000	    -27.00667683	      0.05940377	      0.74783717	     86.83524839	     86.83524839	    -68.08466905	    -68.08466905	      9.46274537	      9.46274537	    -39.08364090
     25.82000000	    -27.43689993	      0.06337382	      0.75028137	     86.67591178	     86.67591178	    -67.70422490	    -67.70422490	      9.55135163	      9.55135163	    -39.00281454
     25.83000000	    -27.84021725	      0.06730355	      0.75277287	     86.48637575	     86.48637575	    -67.31871880	    -67.31871880	      9.67188107	      9.67188107	    -38.88625356
     25.84000000	    -28.20980140	      0.07124185	      0.75538692	     86.25567401	     86.25567401	    -66.91932736	    -66.91932736	      9.82678670	      9.82678670	    -38.75909624
     25.85000000	    -28.53947888	      0.07517188	      0.75811318	     85.97646454	     85.97646454	    -66.50346293	    -66.50346293	      9.99568718	      9.99568718	    -38.61912716
     25.86000000	    -28.81730230	      0.07912771	      0.76092214	     85.64552474	     85.64552474	    -66.08810256	    -66.08810256	     10.18637867	     10.18637867	    -38.47786247
     25.87000000	    -29.09030336	      0.08309318	      0.76385340	     85.28545168	     85.28545168	    -65.63700093	    -65.63700093	     10.34322682	     10.34322682	    -38.29418017
     25.88000000	    -29.33481919	      0.08706580	      0.76685357	     84.89160544	     84.89160544	    -65.16828319	    -65.16828319	     10.48434680	     10.48434680	    -38.08874589
     25.89000000	    -29.53422463	      0.09110606	      0.77000668	     84.43947779	     84.43947779	    -64.68425115	    -64.68425115	     10.62609969	     10.62609969	    -37.89777649
     25.90000000	    -29.71695114	      0.09512549	      0.77323779	     83.96218231	     83.96218231	    -64.16909495	    -64.16909495	     10.73005601	     10.73005601	    -37.67359663
     25.91000000	    -29.79269277	      0.09926586	      0.77675222	     83.35466666	     83.35466666	    -63.63474826	    -63.63474826	     10.81383406	     10.81383406	    -37.54213823
     25.92000000	    -30.02800867	      0.10320701	      0.77994275	     82.92333267	     82.92333267	    -63.06354128	    -63.06354128	     10.82988779	     10.82988779	    -37.16325055
     25.93000000	    -30.04506745	      0.10736073	      0.78365923	     82.24473286	     82.24473286	    -62.47400468	    -62.47400468	     10.69597107	     10.69597107	    -37.02287290
     25.94000000	    -30.23529914	      0.11130998	      0.78698633	     81.76262825	     81.76262825	    -61.87099730	    -61.87099730	     10.65385103	     10.65385103	    -36.62213211
     25.95000000	    -30.18871440	      0.11546252	      0.79088122	     81.00719108	     81.00719108	    -61.22930804	    -61.22930804	     10.33575663	     10.33575663	    -36.48714864
     25.96000000	    -30.36126371	      0.11936433	      0.79421912	     80.51270433	     80.51270433	    -60.60579327	    -60.60579327	     10.28852235	     10.28852235	    -36.02220823
     25.97000000	    -30.21774204	      0.12354127	      0.79828741	     79.65349068	     79.65349068	    -59.94163559	    -59.94163559	      9.87881287	      9.87881287	    -35.93334275
     25.98000000	    -30.37103668	      0.12739082	      0.80158948	     79.15095314	     79.15095314	    -59.32153639	    -59.32153639	      9.84329148	      9.84329148	    -35.40882265
     25.99000000	    -30.14188430	      0.13156326	      0.80575889	     78.21099544	     78.21099544	    -58.65904200	    -58.65904200	      9.44505628	      9.44505628	    -35.35148637
     26.00000000	    -30.22843069	      0.13538317	      0.80908326	     77.65153296	     77.65153296	    -58.05807175	    -58.05807175	      9.39678278	      9.39678278	    -34.83602239
     26.01000000	    -29.98778763	      0.13950143	      0.81310821	     76.72206256	     76.72206256	    -57.43626054	    -57.43626054	      9.14094765	      9.14094765	    -34.70521357
     26.02000000	    -30.07662686	      0.14322239	      0.81636078	     76.17981720	     76.17981720	    -56.83755318	    -56.83755318	      9.13491204	      9.13491204	    -34.12045047
     26.03000000	    -29.77060703	      0.14729430	      0.82040827	     75.19178697	     75.19178697	    -56.22630539	    -56.22630539	      8.95358842	      8.95358842	    -34.00312331
     26.04000000	    -29.82447872	      0.15094402	      0.82357554	     74.62918627	     74.62918627	    -55.65051306	    -55.65051306	      8.96194613	      8.96194613	    -33.38175567
     26.05000000	    -29.47798561	      0.15496245	      0.82760023	     73.60431694	     73.60431694	    -55.04189306	    -55.04189306	      8.84733531	      8.84733531	    -33.24311452
     26.06000000	    -29.50298022	      0.15853149	      0.83073803	     73.01800545	     73.01800545	    -54.46036475	    -54.46036475	      8.86235428	      8.86235428	    -32.58930562
     26.07000000	    -29.34661028	      0.16223278	      0.83416133	     72.23769285	     72.23769285	    -53.88946811	    -53.88946811	      8.83157714	      8.83157714	    -32.12517053
     26.08000000	    -29.24007383	      0.16585831	      0.83758983	     71.48356782	     71.48356782	    -53.25350877	    -53.25350877	      8.82029707	      8.82029707	    -31.59710493
     26.09000000	    -28.73072368	      0.16987560	      0.84171336	     70.30341454	     70.30341454	    -52.66705041	    -52.66705041	      8.72218242	      8.72218242	    -31.53070639
     26.10000000	    -28.71266233	      0.17335410	      0.84472575	     69.69000306	     69.69000306	    -52.09123283	    -52.09123283	      8.74553868	      8.74553868	    -30.79837398
     26.11000000	    -28.49861841	      0.17702573	      0.84808771	     68.85712988	     68.85712988	    -51.52558712	    -51.52558712	      8.72687871	      8.72687871	    -30.28098916
     26.12000000	    -28.01383548	      0.18092990	      0.85209882	     67.69260644	     67.69260644	    -50.88990921	    -50.88990921	      8.66991218	      8.66991218	    -30.11289383
     26.13000000	    -27.93017686	      0.18441432	      0.85511712	     67.01527388	     67.01527388	    -50.32049367	    -50.32049367	      8.68820029	      8.68820029	    -29.38175611
     26.14000000	    -27.48427988	      0.18822860	      0.85894088	     65.90062643	     65.90062643	    -49.69138218	    -49.69138218	      8.64445126	      8.64445126	    -29.10120324
     26.15000000	    -27.20526808	      0.19185331	      0.86234762	     64.98479203	     64.98479203	    -49.07902021	    -49.07902021	      8.64011916	      8.64011916	    -28.58011820
     26.16000000	    -26.92501337	      0.19545854	      0.86575091	     64.06223990	     64.06223990	    -48.45163946	    -48.45163946	      8.62662262	      8.62662262	    -28.04017764
     26.17000000	    -26.62511799	      0.19904944	      0.86916299	     63.11247737	     63.11247737	    -47.81394135	    -47.81394135	      8.61802633	      8.61802633	    -27.51199624
     26.18000000	    -26.52688540	      0.20243693	      0.87211797	     62.39679275	     62.39679275	    -47.17869419	    -47.17869419	      8.64015113	      8.64015113	    -26.69770483
     26.19000000	    -25.97551022	      0.20624278	      0.87608596	     61.13582874	     61.13582874	    -46.48281779	    -46.48281779	      8.58436650	      8.58436650	    -26.46145259
     26.20000000	    -25.62577495	      0.20983895	      0.87956763	     60.11272005	     60.11272005	    -45.79838371	    -45.79838371	      8.57387833	      8.57387833	    -25.94813568
     26.21000000	    -25.25863149	      0.21345368	      0.88306218	     59.06821811	     59.06821811	    -45.11096092	    -45.11096092	      8.55939118	      8.55939118	    -25.43737661
     26.22000000	    -24.86780796	      0.21708275	      0.88659425	     57.98715719	     57.98715719	    -44.40228224	    -44.40228224	      8.53947364	      8.53947364	    -24.94224577
     26.23000000	    -24.45981324	      0.22071097	      0.89011247	     56.89826222	     56.89826222	    -43.71048842	    -43.71048842	      8.52236648	      8.52236648	    -24.45915754
